<?xml version="1.0" encoding="utf-8"?>
<!-- Generator: Adobe Illustrator 25.0.0, SVG Export Plug-In . SVG Version: 6.00 Build 0)  -->
<svg version="1.1" id="Layer_1" xmlns="http://www.w3.org/2000/svg" xmlns:xlink="http://www.w3.org/1999/xlink" x="0px" y="0px"
	 viewBox="0 0 720 720" style="enable-background:new 0 0 720 720;" xml:space="preserve">
<style type="text/css">
	.st0{display:none;}
	.st1{fill:#7F7F7F;}
</style>
<rect class="st0" width="720" height="720"/>
<g>
	<path class="st1" d="M362.9,216.9c-4.1,24.8-10.3,45.3-18.7,61.6c-8.4,16.3-18.3,29-29.7,38c-11.4,9.1-24,14.9-37.8,17.4
		c-13.8,2.6-28.2,2.6-43.3,0.1c-14.9-2.4-28.4-7.2-40.6-14.3c-12.2-7.1-22.2-16.8-30.1-29.2c-7.9-12.4-13.2-27.5-16-45.5
		s-2.1-39.1,1.8-63.4c4.1-24.8,10.3-45.2,18.7-61.4s18.3-28.8,29.7-37.8c11.4-9.1,24-14.9,37.8-17.4c13.8-2.6,28.1-2.6,42.9-0.2
		c15.1,2.5,28.8,7.2,41,14.2s22.3,16.6,30.2,28.8c7.9,12.2,13.2,27.4,16,45.4C367.6,171.1,367,192.4,362.9,216.9z M210.2,609.8
		l-80.6-13.3l380.3-484.4l80.6,13.3L210.2,609.8z M292.4,205.3c3.6-22,3.1-38.8-1.4-50.4c-4.6-11.6-12.8-18.3-24.7-20.3
		c-11.4-1.9-21,1.9-29,11.4c-7.9,9.5-13.7,25.3-17.3,47.3c-3.6,21.8-3.2,38.5,1.3,50.2c4.4,11.7,12.3,18.4,23.7,20.3
		c11.9,2,21.9-1.9,29.9-11.5C282.9,242.8,288.8,227.1,292.4,205.3z M568.6,538.4c-4.1,24.8-10.3,45.2-18.7,61.4
		s-18.3,28.8-29.7,37.8c-11.4,9.1-24,14.9-37.8,17.4c-13.8,2.6-28.2,2.6-43.3,0.1c-14.9-2.4-28.4-7.1-40.6-14.1s-22.2-16.6-30.1-29
		s-13.2-27.5-16-45.5s-2.1-39.1,1.8-63.4c4.1-24.8,10.3-45.2,18.7-61.4c8.4-16.2,18.3-28.8,29.7-37.8c11.4-9.1,24-14.9,37.8-17.6
		s28.1-2.8,43-0.4c15.1,2.5,28.8,7.2,41,14.2s22.2,16.6,30.1,29c7.9,12.4,13.2,27.5,16,45.5C573.3,492.6,572.7,513.9,568.6,538.4z
		 M498.1,526.8c3.7-22.3,3.2-39.1-1.4-50.6c-4.6-11.4-12.8-18.1-24.7-20.1c-11.4-1.9-21,1.9-28.9,11.3s-13.7,25.2-17.4,47.5
		c-3.5,21.5-3.1,38.1,1.4,49.6s12.4,18.2,23.8,20.1c11.9,2,21.8-1.8,29.9-11.3C488.7,563.8,494.5,548.3,498.1,526.8z"/>
</g>
</svg>
